<svg xmlns="http://www.w3.org/2000/svg" viewBox="0 0 512 103.8"><linearGradient id="a" gradientUnits="userSpaceOnUse" x1="153.85" y1="90.585" x2="153.85" y2="27.827" gradientTransform="matrix(1 0 0 -1 0 106)"><stop offset="0" stop-color="#8dc63f"/><stop offset="1" stop-color="#39b54a"/></linearGradient><path d="M130.1 41.4h5.8l17.8 39.5 18.1-39.5h5.8l-23.3 51.2h-1.2l-23-51.2z" fill="url(#a)"/><linearGradient id="b" gradientUnits="userSpaceOnUse" x1="184.4" y1="90.585" x2="184.4" y2="27.827" gradientTransform="matrix(1 0 0 -1 0 106)"><stop offset="0" stop-color="#8dc63f"/><stop offset="1" stop-color="#39b54a"/></linearGradient><path d="M184.4 60.9c5 0 9.1 1.7 12.4 5.2 3 3.1 4.5 6.9 4.5 11.2 0 4.3-1.6 8.1-4.7 11.3-3.2 3.2-7.2 4.8-12.2 4.8s-9-1.6-12.2-4.8c-3.2-3.2-4.7-7-4.7-11.3s1.5-8 4.5-11.1c3.3-3.6 7.4-5.3 12.4-5.3zm0 3.9c-3.5 0-6.4 1.2-8.9 3.7-2.5 2.4-3.7 5.4-3.7 8.9 0 2.2.6 4.3 1.7 6.3s2.7 3.4 4.6 4.5c1.9 1.1 4.1 1.6 6.4 1.6 2.3 0 4.4-.5 6.4-1.6 1.9-1.1 3.5-2.5 4.6-4.5 1.1-1.9 1.7-4 1.7-6.3 0-3.5-1.3-6.4-3.8-8.9-2.6-2.5-5.5-3.7-9-3.7z" fill="url(#b)"/><linearGradient id="c" gradientUnits="userSpaceOnUse" x1="217.15" y1="90.585" x2="217.15" y2="27.827" gradientTransform="matrix(1 0 0 -1 0 106)"><stop offset="0" stop-color="#8dc63f"/><stop offset="1" stop-color="#39b54a"/></linearGradient><path d="M204.5 64.8h3.7v13c0 3.2.2 5.3.5 6.5.5 1.7 1.6 3 3.1 4s3.3 1.5 5.4 1.5c2.1 0 3.9-.5 5.3-1.4 1.5-1 2.5-2.2 3-3.8.4-1.1.6-3.3.6-6.8v-13h3.8v13.6c0 3.8-.5 6.7-1.4 8.7-.9 1.9-2.3 3.5-4.2 4.6s-4.2 1.6-7.1 1.6c-2.8 0-5.2-.5-7.1-1.6-1.9-1.1-3.3-2.6-4.3-4.6-.9-2-1.4-4.9-1.4-8.9V64.8h.1z" fill="url(#c)"/><linearGradient id="d" gradientUnits="userSpaceOnUse" x1="248.15" y1="90.585" x2="248.15" y2="27.827" gradientTransform="matrix(1 0 0 -1 0 106)"><stop offset="0" stop-color="#8dc63f"/><stop offset="1" stop-color="#39b54a"/></linearGradient><path d="M263 70.5l-3 1.8c-2.6-3.3-6.1-4.9-10.5-4.9-3.5 0-6.5 1.1-8.8 3.3-2.3 2.2-3.5 4.8-3.5 7.9 0 2 .5 3.9 1.6 5.7 1.1 1.8 2.6 3.2 4.4 4.2 1.9 1 4 1.5 6.3 1.5 4.3 0 7.8-1.6 10.5-4.9l3 1.9c-1.4 2-3.3 3.6-5.6 4.7s-5 1.7-8 1.7c-4.6 0-8.4-1.4-11.5-4.2-3-2.8-4.6-6.2-4.6-10.2 0-2.7.7-5.2 2.1-7.5 1.4-2.3 3.4-4.1 5.8-5.4s5.3-1.9 8.3-1.9c1.9 0 3.8.3 5.6.8 1.8.6 3.3 1.3 4.6 2.2 1.4.8 2.4 1.9 3.3 3.3z" fill="url(#d)"/><linearGradient id="e" gradientUnits="userSpaceOnUse" x1="279.25" y1="90.6" x2="279.25" y2="27.842" gradientTransform="matrix(1 0 0 -1 0 106)"><stop offset="0" stop-color="#8dc63f"/><stop offset="1" stop-color="#39b54a"/></linearGradient><path d="M266.6 54h3.7v15.7c1.5-1.9 3.2-3.3 5-4.3 1.8-.9 3.8-1.4 5.9-1.4 2.2 0 4.1.5 5.8 1.6 1.7 1.1 2.9 2.5 3.7 4.3.8 1.8 1.2 4.6 1.2 8.4v14.3h-3.7V79.3c0-3.2-.1-5.3-.4-6.4-.5-1.8-1.3-3.2-2.5-4.1s-2.8-1.4-4.8-1.4c-2.3 0-4.3.7-6.1 2.1-1.8 1.4-3 3.2-3.5 5.3-.4 1.4-.5 3.9-.5 7.6v10.2h-3.7V54h-.1z" fill="url(#e)"/><linearGradient id="f" gradientUnits="userSpaceOnUse" x1="310.1" y1="90.585" x2="310.1" y2="27.827" gradientTransform="matrix(1 0 0 -1 0 106)"><stop offset="0" stop-color="#8dc63f"/><stop offset="1" stop-color="#39b54a"/></linearGradient><path d="M321 83.3l3.2 1.6c-1 1.9-2.2 3.5-3.6 4.7s-2.9 2.1-4.6 2.7-3.6.9-5.8.9c-4.8 0-8.5-1.5-11.1-4.5-2.7-3-4-6.3-4-10.1 0-3.5 1.1-6.7 3.4-9.4 2.9-3.5 6.7-5.3 11.5-5.3 5 0 8.9 1.8 11.9 5.4 2.1 2.5 3.2 5.7 3.2 9.5h-26.2c.1 3.2 1.2 5.9 3.2 7.9 2.1 2.1 4.7 3.1 7.7 3.1 1.5 0 2.9-.2 4.3-.7s2.6-1.1 3.6-2c1.1-.7 2.2-2 3.3-3.8zm0-7.5c-.5-1.9-1.2-3.4-2.2-4.6-1-1.1-2.2-2.1-3.8-2.8-1.6-.7-3.2-1-5-1-2.9 0-5.3.9-7.4 2.6-1.5 1.3-2.6 3.2-3.4 5.7H321v.1z" fill="url(#f)"/><linearGradient id="g" gradientUnits="userSpaceOnUse" x1="334.5" y1="90.585" x2="334.5" y2="27.827" gradientTransform="matrix(1 0 0 -1 0 106)"><stop offset="0" stop-color="#8dc63f"/><stop offset="1" stop-color="#39b54a"/></linearGradient><path d="M327.2 64.8h3.8v4.1c1.1-1.6 2.3-2.8 3.6-3.6 1.3-.8 2.6-1.2 4-1.2 1 0 2.1.3 3.3.9l-2 3c-.8-.3-1.4-.5-2-.5-1.2 0-2.5.5-3.6 1.5-1.2 1-2 2.5-2.7 4.6-.5 1.6-.7 4.8-.7 9.6v9.4h-3.8V64.8h.1z" fill="url(#g)"/><linearGradient id="h" gradientUnits="userSpaceOnUse" x1="349.7" y1="90.585" x2="349.7" y2="27.827" gradientTransform="matrix(1 0 0 -1 0 106)"><stop offset="0" stop-color="#8dc63f"/><stop offset="1" stop-color="#39b54a"/></linearGradient><path d="M358.3 67.8l-2.4 2.4c-2-1.9-4-2.8-5.9-2.8-1.2 0-2.3.4-3.1 1.1-.9.8-1.3 1.7-1.3 2.7 0 .9.4 1.8 1.1 2.6.7.8 2.2 1.8 4.5 2.9 2.8 1.4 4.7 2.7 5.7 4s1.5 2.7 1.5 4.4c0 2.3-.8 4.2-2.5 5.8-1.7 1.6-3.8 2.4-6.3 2.4-1.7 0-3.3-.3-4.8-1s-2.8-1.7-3.8-2.9l2.4-2.6c1.9 2.1 3.9 3.1 6.1 3.1 1.5 0 2.8-.5 3.8-1.4 1.1-.9 1.6-2 1.6-3.2 0-1-.3-1.9-1-2.7-.7-.8-2.3-1.8-4.7-3-2.6-1.3-4.4-2.6-5.4-3.8-.9-1.3-1.4-2.7-1.4-4.3 0-2.1.8-3.9 2.3-5.3s3.4-2.1 5.7-2.1c2.5-.1 5.2 1.2 7.9 3.7z" fill="url(#h)"/><linearGradient id="i" gradientUnits="userSpaceOnUse" x1="387.3" y1="90.585" x2="387.3" y2="27.827" gradientTransform="matrix(1 0 0 -1 0 106)"><stop offset="0" stop-color="#8dc63f"/><stop offset="1" stop-color="#39b54a"/></linearGradient><path d="M412.6 51.8l-4.1 3c-2.3-2.8-5-4.9-8.2-6.4-3.2-1.4-6.7-2.2-10.4-2.2-4.1 0-8 1-11.5 2.8-3.5 1.9-6.3 4.5-8.2 7.7-1.9 3.2-2.9 6.8-2.9 10.8 0 6 2.2 11.1 6.5 15.1s9.8 6.1 16.5 6.1c7.3 0 13.4-2.7 18.3-8.2l4.1 3c-2.6 3.1-5.8 5.6-9.7 7.3-3.9 1.7-8.2 2.6-13 2.6-9.1 0-16.3-2.9-21.5-8.7-4.4-4.9-6.6-10.8-6.6-17.7 0-7.3 2.7-13.4 8-18.3 5.3-5 12-7.4 20.1-7.4 4.9 0 9.2.9 13.2 2.7 3.7 2 6.9 4.5 9.4 7.8z" fill="url(#i)"/><linearGradient id="j" gradientUnits="userSpaceOnUse" x1="430.75" y1="90.585" x2="430.75" y2="27.827" gradientTransform="matrix(1 0 0 -1 0 106)"><stop offset="0" stop-color="#8dc63f"/><stop offset="1" stop-color="#39b54a"/></linearGradient><path d="M430.8 64c4.5 0 8.2 1.5 11.2 4.6 2.7 2.8 4 6.2 4 10 0 3.9-1.4 7.3-4.3 10.2-2.8 2.9-6.5 4.4-10.9 4.4-4.5 0-8.1-1.5-11-4.4-2.8-2.9-4.3-6.3-4.3-10.2 0-3.8 1.3-7.2 4-10 3.1-3 6.8-4.6 11.3-4.6zm0 3.5c-3.1 0-5.8 1.1-8 3.3-2.2 2.2-3.4 4.9-3.4 8 0 2 .5 3.9 1.5 5.6s2.4 3.1 4.1 4 3.6 1.4 5.7 1.4 4-.5 5.7-1.4 3.1-2.3 4.1-4 1.5-3.6 1.5-5.6c0-3.1-1.1-5.8-3.4-8-2-2.2-4.7-3.3-7.8-3.3z" fill="url(#j)"/><linearGradient id="k" gradientUnits="userSpaceOnUse" x1="463.2" y1="90.585" x2="463.2" y2="27.827" gradientTransform="matrix(1 0 0 -1 0 106)"><stop offset="0" stop-color="#8dc63f"/><stop offset="1" stop-color="#39b54a"/></linearGradient><path d="M478.4 54v38.5h-3.7v-4.8c-1.6 1.8-3.3 3.2-5.3 4.1s-4.1 1.4-6.4 1.4c-4.1 0-7.6-1.4-10.6-4.3-2.9-2.8-4.4-6.3-4.4-10.4 0-4 1.5-7.4 4.4-10.3 2.9-2.8 6.5-4.3 10.6-4.3 2.4 0 4.6.5 6.5 1.5s3.6 2.4 5.1 4.4V54h3.8zm-14.9 13.5c-2.1 0-4 .5-5.8 1.5s-3.2 2.4-4.2 4.1c-1 1.8-1.6 3.6-1.6 5.6s.5 3.8 1.6 5.6c1.1 1.8 2.5 3.2 4.2 4.2 1.8 1 3.7 1.5 5.7 1.5 2.1 0 4-.5 5.8-1.5s3.2-2.3 4.2-4 1.5-3.6 1.5-5.7c0-3.2-1.1-5.9-3.3-8.1-2.2-2.1-4.9-3.2-8.1-3.2z" fill="url(#k)"/><linearGradient id="l" gradientUnits="userSpaceOnUse" x1="497" y1="90.585" x2="497" y2="27.827" gradientTransform="matrix(1 0 0 -1 0 106)"><stop offset="0" stop-color="#8dc63f"/><stop offset="1" stop-color="#39b54a"/></linearGradient><path d="M507.9 83.3l3.2 1.6c-1 1.9-2.2 3.5-3.6 4.7s-2.9 2.1-4.6 2.7-3.6.9-5.8.9c-4.8 0-8.5-1.5-11.1-4.5-2.7-3-4-6.3-4-10.1 0-3.5 1.1-6.7 3.4-9.4 2.9-3.5 6.7-5.3 11.5-5.3 5 0 8.9 1.8 11.9 5.4 2.1 2.5 3.2 5.7 3.2 9.5h-26.2c.1 3.2 1.2 5.9 3.2 7.9 2.1 2.1 4.7 3.1 7.7 3.1 1.5 0 2.9-.2 4.3-.7s2.6-1.1 3.6-2c1.1-.7 2.1-2 3.3-3.8zm0-7.5c-.5-1.9-1.2-3.4-2.2-4.6-1-1.1-2.2-2.1-3.8-2.8-1.6-.7-3.2-1-5-1-2.9 0-5.3.9-7.4 2.6-1.5 1.3-2.6 3.2-3.4 5.7h21.8v.1z" fill="url(#l)"/><linearGradient id="m" gradientUnits="userSpaceOnUse" x1="84.25" y1="90.585" x2="84.25" y2="27.827" gradientTransform="matrix(1 0 0 -1 0 106)"><stop offset="0" stop-color="#8dc63f"/><stop offset="1" stop-color="#39b54a"/></linearGradient><path d="M84.3 60.2c5.1 0 9.3 1.7 12.6 5.2 3 3.2 4.5 7 4.5 11.3 0 4.4-1.6 8.2-4.8 11.5-3.2 3.3-7.3 4.9-12.3 4.9s-9.2-1.6-12.4-4.9c-3.2-3.3-4.8-7.1-4.8-11.5 0-4.3 1.5-8.1 4.5-11.3 3.4-3.5 7.6-5.2 12.7-5.2zm0 3.9c-3.5 0-6.5 1.2-9.1 3.7-2.5 2.5-3.8 5.5-3.8 9 0 2.3.6 4.4 1.7 6.3 1.2 2 2.7 3.5 4.7 4.5 2 1.1 4.1 1.6 6.5 1.6s4.5-.5 6.5-1.6 3.5-2.6 4.7-4.5c1.2-2 1.7-4.1 1.7-6.3 0-3.5-1.3-6.5-3.8-9-2.6-2.4-5.6-3.7-9.1-3.7z" fill="url(#m)"/><linearGradient id="n" gradientUnits="userSpaceOnUse" x1="121.35" y1="90.585" x2="121.35" y2="27.827" gradientTransform="matrix(1 0 0 -1 0 106)"><stop offset="0" stop-color="#8dc63f"/><stop offset="1" stop-color="#39b54a"/></linearGradient><path d="M104.2 61h4.2v5.8c1.7-2.2 3.6-3.8 5.8-4.9 2.2-1.1 4.6-1.6 7.3-1.6 4.7 0 8.7 1.6 12 4.8 3.3 3.2 5 7.1 5 11.6 0 4.6-1.6 8.5-4.9 11.7s-7.3 4.8-11.9 4.8c-2.6 0-5-.5-7.2-1.6-2.2-1-4.2-2.6-5.9-4.6v16.8h-4.2V61h-.2zm16.9 3.1c-3.7 0-6.7 1.2-9.2 3.7-2.5 2.4-3.7 5.5-3.7 9.1 0 2.4.6 4.5 1.7 6.4s2.7 3.4 4.8 4.5c2.1 1.1 4.3 1.7 6.6 1.7s4.4-.6 6.4-1.7 3.6-2.7 4.8-4.7 1.8-4.1 1.8-6.3-.6-4.3-1.8-6.3-2.8-3.5-4.7-4.6c-2.2-1.3-4.4-1.8-6.7-1.8z" fill="url(#n)"/><linearGradient id="o" gradientUnits="userSpaceOnUse" x1="32.682" y1="90.585" x2="32.682" y2="27.827" gradientTransform="matrix(1 0 0 -1 0 106)"><stop offset="0" stop-color="#8dc63f"/><stop offset="1" stop-color="#39b54a"/></linearGradient><path d="M3.6.1C.6.3.4 2.2.5 4.6v56.2C.5 66.3.1 71.7 1.9 77c1.4 4.1 4.1 7.8 7.6 10.4 2.9 2.2 6.5 3.6 10.1 4.2 0 0 5.5.7 9.3-.4 10-2.5 16.8-10.7 16.9-20.5 0-1.7.4-2.4 2.3-2.4 2.7.1 5.5.1 8.2 0 1.5 0 2 .5 2 2 .3 10.3-6 18.3-16.6 20.9-1 .2-2 .5-2.9.7 1.6.2 3.2.3 4.8.1 7.3-.6 14.3-5 18.1-10.8 3.4-5.2 3.2-10.9 3.2-16.6 0-1.4-.8-1.5-2-1.5H41.3c-1.6 0-1.9.6-2 2 0 2.7 0 5.4-.4 8-1.2 7.4-8.6 12.9-16.7 12.4-8-.4-14.9-6.8-14.9-14-.1-21 0-42.1-.1-63.1 0-1.9 1.6-1.8 3.1-1.8h6.9c1.7 0 2.7.5 2.6 2.3-.1 6.2 0 12.4-.1 18.6 0 1.6.5 2.1 2.2 2 4.4-.1 8.8 0 13.1 0 1.5 0 2.1.5 2.1 1.9-.1 2.7-.1 5.4 0 8 .1 1.6-.6 2.1-2.2 2.1-4.4-.1-8.8 0-13.1 0-1.2 0-2.1.1-2.1 1.7 0 8.9-.1 17.9.1 26.8.1 5.4 4 9.2 8.6 9.5-.8-3-2-6.1-2.2-9.3-.4-6.8-.1-13.6-.2-20.3 0-1.7.6-2.2 2.3-2.1 4.3.1 8.6 0 12.9.1 1.5 0 2.3-.3 2.2-2-.1-6.7-.1-13.4 0-20.1 0-2.7-2.7-2.3-4.7-2.3h-8.6c-2 0-4.2 0-4.1-2.4.1-5.4-.1-10.9.1-16.3C26.2 2.1 26 .2 23 0L3.6.1z" fill="url(#o)"/></svg>